<svg xmlns="http://www.w3.org/2000/svg" xmlns:xlink="http://www.w3.org/1999/xlink" style="position: absolute; width: 0; height: 0" aria-hidden="true" id="__SVG_SPRITE_NODE__"><symbol xmlns="http://www.w3.org/2000/svg" viewBox="0 0 100 100" id="woo_svg_approve"><path fill="#8a8c92" d="M50 3.6c25.8 0 46.4 20.6 46.4 46.4S75.8 96.4 50 96.4 3.6 75.8 3.6 50 24.2 3.6 50 3.6"></path><path fill="currentColor" d="M50 100c-13.4 0-26-5.2-35.4-14.6S0 63.4 0 50s5.2-26 14.6-35.4S36.6 0 50 0s26 5.2 35.4 14.6S100 36.6 100 50s-5.2 26-14.6 35.4S63.4 100 50 100zm0-92.8C26.4 7.2 7.2 26.4 7.2 50S26.4 92.8 50 92.8 92.8 73.6 92.8 50 73.6 7.2 50 7.2z"></path><g><path fill="#FFF" d="M75.8 30.4h-9.3L50 63.4l-16.5-33h-9.3l2.1 6.2 20.6 40.2h6.2l20.6-40.2z"></path></g></symbol><symbol xmlns="http://www.w3.org/2000/svg" viewBox="0 0 100 100" id="woo_svg_club"><path fill="#ED3714" d="M50 3.6c25.8 0 46.4 20.6 46.4 46.4S75.8 96.4 50 96.4 3.6 75.8 3.6 50 24.2 3.6 50 3.6"></path><path fill="currentColor" d="M50 100c-13.4 0-26-5.2-35.4-14.6S0 63.4 0 50s5.2-26 14.6-35.4S36.6 0 50 0s26 5.2 35.4 14.6S100 36.6 100 50s-5.2 26-14.6 35.4S63.4 100 50 100zm0-92.8C26.4 7.2 7.2 26.4 7.2 50S26.4 92.8 50 92.8 92.8 73.6 92.8 50 73.6 7.2 50 7.2z"></path><g><path fill="#FFF" d="M79.9 40.7H60.3L50 17 39.7 40.7H20.1l14.4 16.5-5.2 21.6 50.6-38.1zm-36.1 6.2L50 34.5l5.2 12.4h5.2L40.7 62.4l2.1-6.2-7.2-9.3h8.2zm8.3 22.7l20.6 9.3-5.2-22.7-15.4 13.4z"></path></g></symbol><symbol xmlns="http://www.w3.org/2000/svg" viewBox="0 0 100 100" id="woo_svg_female"><path fill="#F880AB" d="M50 0c27.6 0 50 22.4 50 50s-22.4 50-50 50S0 77.6 0 50 22.4 0 50 0z"></path><path fill="#FFF" d="M55.1 23.2C43 23.2 33.3 33 33.3 45c0 4.8 1.6 9.2 4.2 12.8l-3.1 3.1-5.7-5.7s-2.3-2.3-4.6 0 0 4.6 0 4.6l5.7 5.7-5.7 5.7 4.6 4.6 5.7-5.7 5.7 5.7s2.3 2.3 4.6 0 0-4.6 0-4.6L39 65.5l3.1-3.1c3.6 2.7 8.1 4.3 13 4.3 12 0 21.8-9.8 21.8-21.8-.1-11.9-9.8-21.7-21.8-21.7m-.3 36.9c-8.3 0-15.1-6.8-15.1-15.1s6.8-15 15.1-15 15.1 6.7 15.1 15.1-6.7 15-15.1 15"></path></symbol><symbol xmlns="http://www.w3.org/2000/svg" viewBox="0 0 100 100" id="woo_svg_male"><path fill="#77C2F9" d="M50 0c27.6 0 50 22.4 50 50s-22.4 50-50 50S0 77.6 0 50 22.4 0 50 0z"></path><path fill="#FFF" d="M73.6 23.5H59c-1.6 0-2.9 1.3-2.9 2.9 0 1.6 1.3 2.9 2.9 2.9h7.6l-8.2 8.2c-3.7-2.8-8.2-4.5-13.2-4.5-12 0-21.8 9.7-21.8 21.8 0 12 9.7 21.8 21.8 21.8S67 66.8 67 54.8c0-4.9-1.7-9.5-4.4-13.1l8.1-8.2V41c0 1.6 1.3 2.9 2.9 2.9s2.9-1.3 2.9-2.9V26.4c.1-1.6-1.3-2.9-2.9-2.9M45.1 69.9c-8.4 0-15.1-6.8-15.1-15.1s6.8-15.1 15.1-15.1c8.4 0 15.1 6.8 15.1 15.1s-6.7 15.1-15.1 15.1"></path></symbol><symbol xmlns="http://www.w3.org/2000/svg" viewBox="0 0 100 100" id="woo_svg_vblue"><path fill="#00A4FF" d="M50 3.6c25.8 0 46.4 20.6 46.4 46.4S75.8 96.4 50 96.4 3.6 75.8 3.6 50 24.2 3.6 50 3.6"></path><path fill="currentColor" d="M50 100c-13.4 0-26-5.2-35.4-14.6S0 63.4 0 50s5.2-26 14.6-35.4S36.6 0 50 0s26 5.2 35.4 14.6S100 36.6 100 50s-5.2 26-14.6 35.4S63.4 100 50 100zm0-92.8C26.4 7.2 7.2 26.4 7.2 50S26.4 92.8 50 92.8 92.8 73.6 92.8 50 73.6 7.2 50 7.2z"></path><g><path fill="#FFF" d="M75.8 30.4h-9.3L50 63.4l-16.5-33h-9.3l2.1 6.2 20.6 40.2h6.2l20.6-40.2z"></path></g></symbol><symbol xmlns="http://www.w3.org/2000/svg" viewBox="0 0 100 100" id="woo_svg_vgirl"><path fill="#FD5093" d="M50 3.6c25.5 0 46.4 20.9 46.4 46.4S75.5 96.4 50 96.4 3.6 75.5 3.6 50 24.5 3.6 50 3.6"></path><path fill="currentColor" d="M50 100C22.4 100 0 77.6 0 50S22.4 0 50 0s50 22.4 50 50-22.4 50-50 50zm0-92.8C26.4 7.2 7.2 26.4 7.2 50S26.4 92.8 50 92.8 92.8 73.6 92.8 50 73.6 7.2 50 7.2z"></path><g><path fill="#FFF" d="M75.5 41V24.9c-15.2 1.6-21.8 38-21.8 38H47s-7.3-36.4-22.5-38V41s7.6 17.4 15.8 21.8v6H34L30.9 72v3.2h7L41 72h19l3.2 3.2h6.3V72l-3.2-3.2h-6v-6C68.2 58.7 75.5 41 75.5 41z"></path></g></symbol><symbol xmlns="http://www.w3.org/2000/svg" viewBox="0 0 100 100" id="woo_svg_vgold"><path fill="#FDFF5D" d="M93 50C93 26 74 7 50 7S7 26 7 50s19 43 43 43c23 0 43-20 43-43zM0 50C0 22 22 0 50 0s50 22 50 50-22 50-50 50S0 77 0 50z"></path><path fill="#E21D02" d="M93 50C93 26 74 7 50 7S7 26 7 50s19 43 43 43c23 0 43-20 43-43z"></path><path fill="none" stroke="#CF2F00" stroke-width=".5" d="M26 33h10l14 29 14-29h10L55 74H45z"></path><path fill="#FEFF5D" d="M26 33h10l14 29 14-29h10L55 74H45z"></path></symbol><symbol xmlns="http://www.w3.org/2000/svg" viewBox="0 0 100 100" id="woo_svg_vip"><path fill="#FDB713" d="M71.7 14c-2 3-5 5-8.1 7 6.1-8 6.1-21-13.1-21S31.3 13 37.3 21c-3-2-6.1-4-8.1-7C7.1 14 0 36 0 43c0 21 14.1 36 14.1 36v7l7.1 14h57.5l7.1-14v-7s14.1-14 14.1-36c1-7-6-29-28.2-29"></path><path fill="#FDE253" d="M21.2 93h57.5v-7H21.2v7m29.3-68c7.1 0 19.2-17 0-17-19.2-1-7.1 17 0 17m21.2-4c-7.1 11-21.2 11-21.2 11s-14.1 0-21.2-11C12.1 26 7.1 36 7.1 46c0 18 14.1 25 14.1 25v7h57.5v-7s14.1-7 14.1-25c1.1-10-4-20-21.1-25"></path><linearGradient id="woo_svg_vip_a" gradientUnits="userSpaceOnUse" x1="42.018" y1="930.349" x2="42.018" y2="968.697" gradientTransform="translate(8.44 -896.746)"><stop offset="0" stop-color="#e82208" stop-opacity=".9"></stop><stop offset="1" stop-color="#cc1108" stop-opacity=".9"></stop></linearGradient><path fill="url(#woo_svg_vip_a)" d="M14.1 46c0 12 18.2 25 18.2 25h11.1V35c-7.1 0-15.1-5-15.1-5s-14.2 4-14.2 16m57.6-15s-4 5-14.1 5v36h11.1s18.2-13 18.2-25c-.1-13-15.2-16-15.2-16"></path><linearGradient id="woo_svg_vip_b" gradientUnits="userSpaceOnUse" x1="42.018" y1="927.346" x2="42.018" y2="968.156" gradientTransform="translate(8.44 -896.746)"><stop offset="0" stop-color="#e82208" stop-opacity=".8"></stop><stop offset="1" stop-color="#cc1108"></stop></linearGradient><path fill="url(#woo_svg_vip_b)" stroke="#C62B1A" stroke-width=".75" stroke-miterlimit="10" d="M14.1 46c0 12 18.2 25 18.2 25h11.1V35c-7.1 0-15.1-5-15.1-5s-14.2 4-14.2 16zm57.6-15s-4 5-14.1 5v36h11.1s18.2-13 18.2-25c-.1-13-15.2-16-15.2-16z"></path></symbol><symbol xmlns="http://www.w3.org/2000/svg" viewBox="0 0 100 100" id="woo_svg_vip1"><path fill="#FFF" d="M71.8 95.9V68.4h-7.2V54.1h21.5v41.8z"></path><path fill="#F6AB00" d="M82 57.1v35.7h-7.1V65.3h-7.1v-8.2H82m8.2-7.1H60.6v22.4h7.1V100h22.4V50h.1z"></path></symbol><symbol xmlns="http://www.w3.org/2000/svg" viewBox="0 0 100 100" id="woo_svg_vip2"><path fill="#FFF" d="M68 96V53h28v43z"></path><path fill="#F6AB00" d="M93 57v21H79v7h14v7H71V71h14v-7H71v-7h22m7-7H64v50h36V50z"></path></symbol><symbol xmlns="http://www.w3.org/2000/svg" viewBox="0 0 100 100" id="woo_svg_vip3"><path fill="#FFF" d="M68 97V53h28v44z"></path><path fill="#F6AB00" d="M93 57v36H71v-7h14v-8H71v-7h14v-7H71v-7h22m7-7H64v50h36V50z"></path></symbol><symbol xmlns="http://www.w3.org/2000/svg" viewBox="0 0 100 100" id="woo_svg_vip4"><path fill="#FFF" d="M78 96v-7H68V53h25v22h3v14h-3v7z"></path><path fill="#F6AB00" d="M89 57v21h4v7h-4v7h-7v-6H71V57h7v21h3V57h8m7-7H64v43h11v7h21v-7h4V71h-4V50z"></path></symbol><symbol xmlns="http://www.w3.org/2000/svg" viewBox="0 0 100 100" id="woo_svg_vip5"><path fill="#FFF" d="M68 53h29v43H68z"></path><path fill="#F6AB00" d="M93 57v7H79v7h14v22H71v-8h14v-7H71V57h22m7-7H64v50h36V50z"></path></symbol><symbol xmlns="http://www.w3.org/2000/svg" viewBox="0 0 100 100" id="woo_svg_vip6"><path fill="#FFF" d="M68.9 96V53h27.2v43z"></path><path fill="#F6AB00" d="M93.2 57v7H79.6v7h13.6v22H71.8V57h21.4M79.6 86h6.8v-8h-6.8v8M100 50H65v50h35V50z"></path></symbol><symbol xmlns="http://www.w3.org/2000/svg" viewBox="0 0 100 100" id="woo_svg_vip7"><path fill="#FFF" d="M93 56v8L82 94h-7l11-30H71v-8h22z"></path><path fill="#F6AB00" d="M93 56v8L82 94h-7l11-30H71v-8h22m7-6H64v20h12l-11 30h21l14-35V50z"></path></symbol><symbol xmlns="http://www.w3.org/2000/svg" viewBox="0 0 100 100" id="woo_svg_vipex"><path fill="#969696" d="M71.7 14c-2 3-5 5-8.1 7 6.1-8 6.1-21-13.1-21S31.3 13 37.3 21c-3-2-6.1-4-8.1-7C7.1 14 0 36 0 43c0 21 14.1 36 14.1 36v7l7.1 14h57.5l7.1-14v-7s14.1-14 14.1-36c1-7-6-29-28.2-29"></path><path fill="#FEFEFE" d="M21.2 93h57.5v-7H21.2v7m29.3-68c7.1 0 19.2-17 0-17-19.2-1-7.1 17 0 17m21.2-4c-7.1 11-21.2 11-21.2 11s-14.1 0-21.2-11C12.1 26 7.1 36 7.1 46c0 18 14.1 25 14.1 25v7h57.5v-7s14.1-7 14.1-25c1.1-10-4-20-21.1-25"></path><linearGradient id="woo_svg_vipex_a" gradientUnits="userSpaceOnUse" x1="42.058" y1="-176.122" x2="42.058" y2="-138.579" gradientTransform="matrix(1 0 0 -1 8.4 -103.9)"><stop offset="0" stop-color="#959595"></stop><stop offset="1" stop-color="#b8b8b8"></stop></linearGradient><linearGradient id="woo_svg_vipex_b" gradientUnits="userSpaceOnUse" x1="5.665" y1="-154.885" x2="78.443" y2="-154.885" gradientTransform="matrix(1 0 0 -1 8.4 -103.9)"><stop offset="0" stop-color="#acacac"></stop><stop offset="1" stop-color="#bcbcbc"></stop></linearGradient><path fill="url(#woo_svg_vipex_a)" stroke="url(#woo_svg_vipex_b)" stroke-width=".75" stroke-miterlimit="10" d="M14.1 46c0 12 18.2 25 18.2 25h11.1V35c-7.1 0-15.1-5-15.1-5s-14.2 4-14.2 16m57.6-15s-4 5-14.1 5v36h11.1s18.2-13 18.2-25c-.1-13-15.2-16-15.2-16"></path><path fill="none" stroke="#8E8E8E" stroke-width=".75" stroke-miterlimit="10" d="M14.1 46c0 12 18.2 25 18.2 25h11.1V35c-7.1 0-15.1-5-15.1-5s-14.2 4-14.2 16zm57.6-15s-4 5-14.1 5v36h11.1s18.2-13 18.2-25c-.1-13-15.2-16-15.2-16z"></path></symbol><symbol xmlns="http://www.w3.org/2000/svg" viewBox="0 0 100 100" id="woo_svg_vyellow"><path fill="#FFB502" d="M50 3.6c25.8 0 46.4 20.6 46.4 46.4S75.8 96.4 50 96.4 3.6 75.8 3.6 50 24.2 3.6 50 3.6"></path><path fill="currentColor" d="M50 100c-13.4 0-26-5.2-35.4-14.6S0 63.4 0 50s5.2-26 14.6-35.4S36.6 0 50 0s26 5.2 35.4 14.6S100 36.6 100 50s-5.2 26-14.6 35.4S63.4 100 50 100zm0-92.8C26.4 7.2 7.2 26.4 7.2 50S26.4 92.8 50 92.8 92.8 73.6 92.8 50 73.6 7.2 50 7.2z"></path><g><path fill="#FFF" d="M74.7 31.4h-8.2L50 63.4l-16.5-32h-8.2l2 6.2 19.6 38.2h6.2l19.6-38.2z"></path></g></symbol><symbol xmlns="http://www.w3.org/2000/svg" viewBox="0 0 100 100" id="woo_svg_weibo"><path fill="#FFF" d="M7.4 64.7c0 11.6 15.2 21.1 33.9 21.1s33.9-9.4 33.9-21.1c0-11.6-15.2-21.1-33.9-21.1-18.8 0-33.9 9.5-33.9 21.1"></path><path fill="#D52B2A" d="M75.1 48c-1.4-.4-2.4-.7-1.6-2.6 1.6-4 1.8-7.5 0-10-3.2-4.6-12.1-4.4-22.3-.1 0 0-3.2 1.4-2.4-1.1 1.6-5 1.3-9.3-1.1-11.7-5.5-5.5-20.2.2-32.8 12.8C5.5 44.8 0 54.8 0 63.4 0 80 21.2 90 42 90c27.2 0 45.3-15.8 45.3-28.3-.1-7.6-6.4-11.9-12.2-13.7zM42 84.1c-16.6 1.6-30.8-5.8-31.9-16.7-1.1-10.9 11.5-21 28-22.6C54.7 43.1 69 50.6 70 61.4c1.1 10.9-11.4 21-28 22.7z"></path><g fill="#E89214"><path d="M93.2 17.7c-6.6-7.2-16.3-10-25.2-8.1-2.1.4-3.4 2.5-2.9 4.5.4 2.1 2.5 3.4 4.5 2.9 6.4-1.4 13.2.6 17.9 5.8 4.7 5.2 5.9 12.2 3.9 18.4-.7 2 .4 4.2 2.5 4.8 2 .7 4.2-.4 4.8-2.5 2.8-8.6 1.1-18.5-5.5-25.8"></path><path d="M83.1 26.8c-3.2-3.5-7.9-4.9-12.3-4-1.8.4-2.9 2.1-2.5 3.9.4 1.8 2.1 2.9 3.9 2.5 2.1-.4 4.4.2 6 1.9 1.6 1.7 2 4.1 1.3 6.2-.6 1.7.4 3.6 2.1 4.2 1.7.6 3.6-.4 4.1-2.1 1.5-4.2.6-9-2.6-12.6"></path></g><path fill="#040000" d="M43.7 53.1c-7.9-2-16.8 1.9-20.2 8.8-3.5 7.1-.2 14.9 7.8 17.5 8.2 2.7 18-1.4 21.3-9.1 3.4-7.4-.8-15.1-8.9-17.2zm-6.1 18.1c-1.6 2.6-5 3.7-7.6 2.5-2.5-1.2-3.3-4.1-1.7-6.6 1.6-2.5 4.9-3.6 7.5-2.5 2.6 1 3.4 4 1.8 6.6zm5.3-6.8c-.6 1-1.9 1.5-2.9 1.1-1-.4-1.3-1.5-.7-2.5.6-1 1.8-1.4 2.8-1 1 .3 1.4 1.4.8 2.4z"></path></symbol><symbol xmlns="http://www.w3.org/2000/svg" viewBox="0 0 100 100" id="woo_svg_like"><path fill="currentColor" d="M98.1 41.6c-2.2-3.7-5.8-5.8-9.7-6.1l-25.9-.1c2.1-5.2 3.3-10.9 3.3-17 .3-6-1.1-18.7-12.2-18.5C47.2.1 42 5.4 42 12.1v1.4C42 26.9 32 37.8 19.4 39c0 0-12 .1-16 .1-.7 0-1.8.4-2.4 1.1-.6.6-1 1.5-1 2.5v53.7c0 1 .5 1.9 1.1 2.6.6.6 1.3 1 2.2 1.1h77.8c1.8 0 4.4-.9 6-2 3.9-3.1 4.5-5.5 5.3-9.4 2.1-10 7.7-39.6 7.7-39.6 0-2.7-.6-5.2-2-7.5M17.3 92.8H7V46.2h10.3v46.6m68.4-6.2c-.2.8-1.2 4.4-2.5 5.3-1.2.9-2.6.9-2.6.9H24.2V45c10.8-3.3 20.5-11.2 23-22.6.8-3.6 1.5-11 1.5-11s.3-4.6 4.7-4.6c2.5 0 4.7 1.7 5.3 5 .9 4.2 1.1 8.2-1.4 17.2-.9 3.1-1.6 4.6-2.8 7 0 0-.9 1.2-.9 3.1 0 2 1.5 3.6 3.3 3.6l31.5.2c1.6 0 3.2.8 4.2 2.3.6 1 .7 2 .6 3.1l-7.5 38.3"></path></symbol><symbol xmlns="http://www.w3.org/2000/svg" viewBox="0 0 100 100" id="woo_svg_likeflat"><path fill="currentColor" d="M17.283 39.04L17.282 100H3.297c-.818-.09-1.47-.429-2.032-.94l-.166-.158c-.553-.645-1.022-1.46-1.09-2.366L0 96.307V42.716c0-.921.34-1.757.864-2.352L1 40.221c.6-.699 1.698-1.098 2.398-1.098l5.927-.026c2.878-.018 5.975-.041 7.96-.057zM53.546.002c11.09-.2 12.488 12.475 12.188 18.463 0 5.844-1.105 11.32-3.049 16.34l-.247.626 25.874.1c3.896.299 7.492 2.395 9.69 6.087 1.399 2.295 1.998 4.79 1.998 7.485l-3.564 18.639c-1.226 6.35-2.528 13.03-3.484 17.747l-.773 3.752c-.745 3.535-1.48 5.837-5.166 8.763-1.514 1.04-3.925 1.9-5.704 1.989l-.29.007H24.176V38.07c10.12-3.1 17.608-12.65 17.78-24.095l.002-.4v-1.397C41.958 5.49 47.153.202 53.546.002z"></path></symbol><symbol xmlns="http://www.w3.org/2000/svg" viewBox="0 0 100 100" id="woo_svg_liked"><path fill="#E04023" d="M98.1 41.6c-2.2-3.7-5.8-5.8-9.7-6.1l-25.9-.1c2.1-5.2 3.3-10.9 3.3-17 .3-6-1.1-18.7-12.2-18.5C47.2.1 42 5.4 42 12.1v1.4C42 26.9 32 37.8 19.4 39c0 0-12 .1-16 .1-.7 0-1.8.4-2.4 1.1-.6.6-1 1.5-1 2.5v53.7c0 1 .5 1.9 1.1 2.6.6.6 1.3 1 2.2 1.1h77.8c1.8 0 4.4-.9 6-2 3.9-3.1 4.5-5.5 5.3-9.4 2.1-10 7.7-39.6 7.7-39.6 0-2.7-.6-5.2-2-7.5M17.3 92.8H7V46.2h10.3v46.6m68.4-6.2c-.2.8-1.2 4.4-2.5 5.3-1.2.9-2.6.9-2.6.9H24.2V45c10.8-3.3 20.5-11.2 23-22.6.8-3.6 1.5-11 1.5-11s.3-4.6 4.7-4.6c2.5 0 4.7 1.7 5.3 5 .9 4.2 1.1 8.2-1.4 17.2-.9 3.1-1.6 4.6-2.8 7 0 0-.9 1.2-.9 3.1 0 2 1.5 3.6 3.3 3.6l31.5.2c1.6 0 3.2.8 4.2 2.3.6 1 .7 2 .6 3.1l-7.5 38.3"></path><path fill="#FFD7A5" d="M85.7 86.6c-.2.8-1.2 4.4-2.5 5.3-1.2.9-2.6.9-2.6.9H24.2V45c10.8-3.3 20.5-11.2 23-22.6.8-3.6 1.5-11 1.5-11s.3-4.6 4.7-4.6c2.5 0 4.7 1.7 5.3 5 .9 4.2 1.1 8.2-1.4 17.2-.9 3.1-1.6 4.6-2.8 7 0 0-.9 1.2-.9 3.1 0 2 1.5 3.6 3.3 3.6l31.5.2c1.6 0 3.2.8 4.2 2.3.6 1 .7 2 .6 3.1l-7.5 38.3"></path><path fill="#F48700" d="M17.3 92.8H7V46.2h10.3v46.6"></path></symbol><symbol xmlns="http://www.w3.org/2000/svg" viewBox="0 0 30 30" id="woo_svg_nav_configFlat"><path d="M11.221 6.864l.222-1.35A3 3 0 0114.403 3h1.47a3 3 0 012.96 2.514l.222 1.35a8.973 8.973 0 011.166.678l1.284-.485a3 3 0 013.658 1.307l.735 1.272a3 3 0 01-.697 3.821l-1.084.888a9.118 9.118 0 01-.002 1.268l1.086.889a3 3 0 01.697 3.82l-.735 1.274a3 3 0 01-3.658 1.306l-1.303-.492a8.992 8.992 0 01-1.114.648l-.235 1.434a3 3 0 01-2.96 2.515h-1.47a3 3 0 01-2.96-2.515l-.232-1.413a8.99 8.99 0 01-1.101-.631l-1.335.504a3 3 0 01-3.658-1.307l-.735-1.273a3 3 0 01.697-3.82l1.067-.874a9.11 9.11 0 01-.01-1.294L5.1 13.518a3 3 0 01-.697-3.821l.735-1.273a3 3 0 013.658-1.307l1.211.458a8.993 8.993 0 011.215-.71zM15.107 19a4 4 0 100-8 4 4 0 000 8zm0-2a2 2 0 110-4 2 2 0 010 4z" fill="currentColor" fill-rule="nonzero"></path></symbol><symbol xmlns="http://www.w3.org/2000/svg" viewBox="0 0 30 30" id="woo_svg_nav_eCom"><path d="M15 6.75a3.902 3.902 0 013.747 2.816h.771a1 1 0 01.995.9l.994 9.9a2 2 0 01-1.99 2.2h-9.035a2 2 0 01-1.989-2.213l1.065-9.893a1 1 0 01.995-.893l.7-.001A3.902 3.902 0 0115 6.75zm-.16 4.984a2.764 2.764 0 00-.895.175 3.364 3.364 0 00-.362.15c-.105.05-.216.11-.321.172a6.624 6.624 0 00-1.32 1.019 6.535 6.535 0 00-.729.831c-.202.278-.37.574-.5.884-.121.278-.193.57-.213.868 0 .153.006.277.017.374.04.386.201.754.467 1.06l.033.037.056.06c.277.28.607.512.974.689a5.34 5.34 0 001.417.49c.439.085.887.126 1.336.124.103 0 .204 0 .32-.006.53-.022 1.054-.101 1.562-.237a5.133 5.133 0 001.309-.574c.34-.202.644-.448.904-.728.06-.067.114-.133.17-.206.06-.077.113-.158.158-.242l.04-.058c.153-.264.228-.558.219-.855a1.486 1.486 0 00-.378-.935 2.072 2.072 0 00-.866-.558 1.18 1.18 0 00-.025-.918 1.177 1.177 0 00-.64-.505 2.244 2.244 0 00-.99-.061c-.17.02-.336.054-.498.1l-.093.029c.01-.101.01-.203-.002-.304a1.321 1.321 0 00-.05-.187 1.073 1.073 0 00-.23-.362 1.19 1.19 0 00-.87-.326zm.165 1.191c.289.916.586 1.526.89 1.831.305.305.877.563 1.714.774-.824.236-1.395.514-1.713.833-.32.319-.616.815-.891 1.489-.359-.683-.692-1.18-1.002-1.489-.31-.31-.844-.587-1.603-.833.763-.21 1.297-.468 1.603-.774.306-.306.64-.917 1.002-1.831zM15 8.05a2.6 2.6 0 00-2.364 1.516h4.728A2.6 2.6 0 0015 8.05z" fill="currentColor" fill-rule="evenodd"></path></symbol><symbol xmlns="http://www.w3.org/2000/svg" viewBox="0 0 30 30" id="woo_svg_nav_game"><path d="M22.536 14.246a3.2 3.2 0 01.682 1.886c.017.6-.118 1.194-.393 1.728l-.074.117c-.082.17-.177.333-.284.488a7.783 7.783 0 01-.308.415 7.576 7.576 0 01-1.633 1.471 8.804 8.804 0 01-2.362 1.16c-.918.273-1.866.434-2.823.477-.208.012-.391.012-.577.012a11.09 11.09 0 01-2.413-.25 8.98 8.98 0 01-2.557-.99 6.422 6.422 0 01-1.76-1.39l-.1-.122-.06-.074a4.1 4.1 0 01-.844-2.14 7.956 7.956 0 01-.03-.757c.036-.6.165-1.19.383-1.75.236-.627.54-1.225.904-1.786.392-.595.832-1.157 1.317-1.679a12.362 12.362 0 012.382-2.057c.19-.124.392-.245.58-.346.212-.115.43-.216.654-.304a4.532 4.532 0 011.618-.354 2.024 2.024 0 011.571.658c.184.215.325.463.416.731.037.124.067.25.087.378.023.204.024.41.005.613l.167-.056c.294-.094.595-.162.9-.204a3.64 3.64 0 011.787.123c.497.188.908.551 1.157 1.021.238.592.254 1.25.045 1.852.611.233 1.15.622 1.563 1.129zm-8.892 1.124h-.738v-.732a.738.738 0 10-1.476 0v.738h-.738a.738.738 0 100 1.472h.738v.738a.738.738 0 101.476 0v-.738h.738a.738.738 0 100-1.476v-.002zm3.691 0a.738.738 0 100-1.48.738.738 0 000 1.482v-.002zm0 1.472a.738.738 0 100 1.472.738.738 0 000-1.47v-.002zM15.86 15.37a.738.738 0 100 1.472.738.738 0 000-1.47v-.002zm2.953 0a.738.738 0 100 1.472.738.738 0 000-1.47v-.002z" fill="currentColor" fill-rule="evenodd"></path></symbol><symbol xmlns="http://www.w3.org/2000/svg" viewBox="0 0 30 30" id="woo_svg_nav_home"><path d="M25.5 16.476v8.026c0 .827-.668 1.498-1.505 1.498h-4.99a1.498 1.498 0 01-1.505-1.498v-5.568a2.506 2.506 0 00-2.5-2.477 2.506 2.506 0 00-2.5 2.477v5.568c0 .827-.668 1.498-1.505 1.498h-4.99A1.498 1.498 0 014.5 24.502v-8.028a2.969 2.969 0 01-.048-.53v-1.257c0-.551.328-1.317.717-1.696l8.762-8.53a1.543 1.543 0 012.138 0l8.762 8.53c.396.385.717 1.145.717 1.696v1.257c0 .181-.017.36-.048.532zm-2-.18l.032-.177a.983.983 0 00.016-.175v-1.257c0-.011-.103-.254-.112-.263L15 6.21l-8.436 8.214a4.424 4.424 0 00-.112.263v1.257c0 .059.006.116.016.173l.032.177V24h4v-5.092a4.505 4.505 0 014.5-4.451c2.465 0 4.467 1.986 4.5 4.477V24h4v-7.704z" fill-rule="nonzero" fill="currentColor"></path></symbol><symbol xmlns="http://www.w3.org/2000/svg" viewBox="0 0 30 30" id="woo_svg_nav_homeFlat"><path d="M25.489 16.234v8.27c0 .826-.669 1.496-1.505 1.496h-4.99a1.497 1.497 0 01-1.505-1.496v-5.527C17.453 17.62 16.353 16.53 15 16.53c-1.23 0-2.25.9-2.453 2.083v5.89c0 .826-.668 1.496-1.504 1.496h-4.99a1.497 1.497 0 01-1.506-1.496v-7.997a3.024 3.024 0 01-.047-.535v-1.275c0-.547.326-1.312.713-1.693l8.722-8.571a1.526 1.526 0 012.13 0l8.722 8.571c.394.388.713 1.151.713 1.693v1.275c0 .088-.004.176-.011.262z" fill="currentColor" fill-rule="evenodd"></path></symbol><symbol xmlns="http://www.w3.org/2000/svg" viewBox="0 0 30 30" id="woo_svg_nav_hot"><path d="M21.817 6.791c.146-.03.267.119.327.186.305.34.549.737.821 1.112 1.026 1.41 1.654 3.125 2.038 4.743.538 2.263.597 4.338.597 5.131 0 5.764-4.836 10.437-10.8 10.437S4 23.727 4 17.963c0-2.751 1.124-5.952 5.292-9.132 3.461-2.64 3.095-5.064 3.424-6.261.067-.245.135-.379.313-.507.278-.125.592-.051.926.106 1.073.506 2.402 2.007 3.545 4.053.547.98 1.214 3.807 1.24 3.878.075.281.202.327.238.34.037.013.225.062.48-.12.6-.441 1.601-1.77 2.081-3.228.08-.192.133-.27.278-.3zm1.24 6.503c-.253-1.068-.59-2.034-1.01-2.87-.453.636-.95 1.172-1.426 1.523-.753.538-1.612.63-2.319.375a2.234 2.234 0 01-1.115-.867 2.535 2.535 0 01-.373-.84c-.11-.414-.398-1.5-.561-2.04A14.499 14.499 0 0015.9 7.53a3.143 3.143 0 00-.146-.332 13.983 13.983 0 00-1.457-2.147c-.124.493-.286.97-.503 1.448-.64 1.412-1.702 2.713-3.29 3.923C7.272 12.89 6 15.331 6 17.963c0 4.644 3.925 8.437 8.8 8.437 4.875 0 8.8-3.793 8.8-8.437 0-1.362-.15-3.02-.542-4.669zm-9.194-.168l.645-.613a.5.5 0 01.833.257l.188.868c.238 1.095.763 1.793 1.821 2.306 1.052.615 1.802 1.808 1.826 2.812.078 2.303-1.758 4.14-4.104 4.14-2.37-.05-4.176-1.873-4.062-4.108.053-1.84.609-3.151 1.866-4.633.28-.327.612-.673.987-1.029zm2.549 4.583c-.995-.48-1.727-1.147-2.22-2.005-.822 1.032-1.147 1.885-1.184 3.164-.056 1.101.837 2.001 2.085 2.028 1.209 0 2.123-.915 2.083-2.082-.007-.299-.364-.868-.764-1.105z" fill-rule="nonzero" fill="currentColor"></path></symbol><symbol xmlns="http://www.w3.org/2000/svg" viewBox="0 0 30 30" id="woo_svg_nav_hotFlat"><path d="M21.817 6.791c.146-.03.267.119.327.186.305.34.549.737.821 1.112 1.026 1.41 1.654 3.125 2.038 4.743.538 2.263.597 4.338.597 5.131 0 5.764-4.836 10.437-10.8 10.437S4 23.727 4 17.963c0-2.751 1.124-5.952 5.292-9.132 3.461-2.64 3.095-5.064 3.424-6.261.067-.245.135-.379.313-.507.278-.125.592-.051.926.106 1.073.506 2.402 2.007 3.545 4.053.547.98 1.214 3.807 1.24 3.878.075.281.202.327.238.34.037.013.225.062.48-.12.6-.441 1.601-1.77 2.081-3.228.08-.192.133-.27.278-.3zm-6.724 5.683c-.33-.118-.623.098-.705.17a16.28 16.28 0 00-1.514 1.514c-.69.813-1.795 2.231-1.863 4.608-.112 2.199 1.63 4.078 4.082 4.13 2.255 0 4.164-1.769 4.083-4.13-.013-.558-.417-2-1.897-2.86-1.412-.68-1.74-1.891-1.85-2.895-.01-.099.002-.382-.336-.537z" fill="currentColor" fill-rule="evenodd"></path></symbol><symbol xmlns="http://www.w3.org/2000/svg" viewBox="0 0 30 30" id="woo_svg_nav_login"><path d="M15 4.2a6.25 6.25 0 013.868 11.16c3.866 1.392 6.632 4.815 6.632 8.884a2 2 0 01-2 2h-17a2 2 0 01-2-2c0-4.07 2.766-7.492 6.632-8.886A6.25 6.25 0 0115 4.2zm.277 12.493l-.048.003L15 16.7c-.093 0-.185-.002-.276-.006-4.567.129-8.224 3.46-8.224 7.55h17l-.004-.235c-.137-3.982-3.74-7.189-8.22-7.316zM15 6.2a4.25 4.25 0 00-.254 8.493l.254-.004c.085 0 .17 0 .254.003A4.249 4.249 0 0015 6.2z" fill="currentColor" fill-rule="nonzero"></path></symbol><symbol xmlns="http://www.w3.org/2000/svg" viewBox="0 0 90 30" id="woo_svg_nav_logo"><mask id="woo_svg_nav_logo_a" fill="#fff"><path d="M.257.642h24.837v18.902H.257z" fill-rule="evenodd"></path></mask><mask id="woo_svg_nav_logo_b" fill="#fff"><path d="M.28.654h5.148v4.971H.28z" fill-rule="evenodd"></path></mask><mask id="woo_svg_nav_logo_c" fill="#fff"><path d="M.57.654h4.795v4.971H.571z" fill-rule="evenodd"></path></mask><g fill="none" fill-rule="evenodd"><path d="M2.715 20.11c0 4.203 5.6 7.613 12.506 7.613 6.907 0 12.506-3.41 12.506-7.613s-5.6-7.612-12.506-7.612c-6.907 0-12.506 3.409-12.506 7.612" fill="#fefefe"></path><path d="M15.513 27.102c-6.114.59-11.39-2.111-11.788-6.035-.397-3.922 4.239-7.581 10.35-8.172 6.115-.591 11.39 2.11 11.789 6.032.395 3.924-4.238 7.584-10.35 8.175M27.74 14.078c-.521-.152-.878-.255-.604-.924.59-1.45.65-2.701.011-3.593-1.2-1.675-4.48-1.584-8.239-.045 0-.001-1.18.505-.878-.41.579-1.818.49-3.34-.409-4.219-2.039-1.995-7.464.075-12.115 4.62C2.023 12.914 0 16.523 0 19.643c0 5.97 7.831 9.598 15.492 9.598 10.043 0 16.724-5.702 16.724-10.231 0-2.737-2.358-4.29-4.476-4.932" fill="#d52c2b"></path><path d="M34.409 3.154C31.984.526 28.405-.476 25.103.21c-.764.16-1.251.894-1.088 1.64.162.747.914 1.224 1.678 1.063 2.35-.487 4.891.226 6.617 2.093a6.687 6.687 0 011.452 6.647c-.241.727.165 1.505.91 1.74.743.235 1.54-.162 1.782-.888V12.5a9.393 9.393 0 00-2.045-9.346" fill="#e79115"></path><path d="M30.684 6.44c-1.181-1.28-2.923-1.766-4.532-1.432a1.188 1.188 0 00-.935 1.413c.14.64.787 1.053 1.442.913v.002a2.366 2.366 0 012.217.698c.578.626.733 1.479.484 2.227h.002a1.187 1.187 0 00.783 1.5c.64.199 1.326-.142 1.532-.768a4.57 4.57 0 00-.993-4.553" fill="#e79115"></path><path d="M15.85 19.996c-.213.358-.686.53-1.057.38-.364-.146-.479-.545-.27-.897.212-.349.666-.52 1.03-.378.369.131.501.535.297.895m-1.947 2.445c-.593.921-1.859 1.325-2.812.9-.94-.418-1.217-1.49-.626-2.388.583-.897 1.808-1.295 2.754-.907.958.4 1.263 1.463.684 2.395m2.22-6.526c-2.909-.741-6.197.676-7.46 3.183-1.287 2.555-.042 5.392 2.897 6.32 3.043.96 6.632-.512 7.88-3.269 1.23-2.697-.306-5.474-3.317-6.234" fill="#060101"></path><path d="M46.554 12.454h7.399l.395-1.29H46.95zM55.267 9.389l1.486-4.93h-1.5l-1.087 3.615h-1.873l1.533-5.092h-1.404l-1.535 5.092h-1.873l1.09-3.615h-1.407l-1.483 4.93zM41.457 9.968c2.483-1.869 5.654-4.619 7.63-6.98l-1.773.017c-1.483 1.737-3.052 3.15-5.108 4.74zM54.081 16.004s-1.62 1.103-2.674 1.694l1.04-3.389s-6.166-.039-6.276 0c-.391 1.804-.789 3.68-2.548 4.992a31.478 31.478 0 01-.703 2.279c1.918-1.576 3.196-2.116 4.206-5.495l.148-.485h3.279l-.545 1.775c-.188.807-1.175 1.695-1.175 1.695l.778 1.13c.55-.378 3.965-2.374 3.965-2.374zM47.165 8.29h-1.501a44.707 44.707 0 01-5.383 5.433l-.677 2.165c0 .018-.002.037 0 .055.331-.269.895-.744 1.48-1.23.603-.538 1.031-.913 1.283-1.13l-2.523 8.23h1.5l3.167-10.326c.842-.916 2.015-2.3 2.654-3.198" fill="currentColor"></path><path d="M57.798 14.874c-.269-1.775-.073-4.033.582-6.775a3.29 3.29 0 00.262-.244h2.715c-1.125 2.853-2.312 5.192-3.56 7.02zm1.732-8.391c.836-1.12 1.555-2.487 2.026-3.496h-1.46c-1.67 3.01-2.393 4.33-4.478 6.714-.222.776-.402 1.4-.728 2.434.499-.416 1.187-.977 1.573-1.455-.349 2.15-.35 4.087-.003 5.807-1.048 1.185-1.265 1.568-3.852 3.29-.262.862-.36 1.102-.733 2.198 2.321-1.668 3.952-3.012 4.89-4.035.615 1.453 2.02 2.933 2.985 4.063.324-.822.363-.913.67-1.727-1.29-1.29-2.183-2.955-2.367-3.79 1.671-1.988 3.272-4.866 4.801-8.63h1.311l.42-1.373z" fill="currentColor"></path><path d="M20.934 6.474H16.72l-.397 1.292h4.216zm-4.981 2.501l-.396 1.292h4.214l.397-1.292zM10.82 6.474l-.396 1.292h4.307l.397-1.292zm-.767 2.501l-.396 1.292h4.308l.395-1.292zm11.95-6.293h3.09l-.397 1.292h-7.21l-.397 1.29h5.808l-2.255 7.37h-1.592l.35-1.158h-4.216l-.342 1.156h-1.59l.342-1.156H9.287l-.36 1.179H7.331L9.6 5.263h5.9l.394-1.289H8.871l.397-1.292h7.024l.637-2.04h1.591l-.637 2.04h3.84zM7.953 16.025l1.478-.733a27.158 27.158 0 012.25 2.266l-1.53.64c-.58-.7-1.312-1.421-2.198-2.173zm-2.638-2.29h11.612l.346-1.128h1.686l-.346 1.129h3.652l-.37 1.209h-3.654l-.693 2.261c-.367 1.395-1.517 2.096-3.453 2.096-1.122 0-2.324-.027-2.324-.027s.241-.748.408-1.376c.939.06 1.838.031 2.15.031.938 0 1.464-.296 1.584-.887l.643-2.098H4.945zM6.036.643h1.687L6.101 5.991h2.153l-.421 1.37H5.679L1.943 19.545H.257L3.993 7.362H1.746l.42-1.371h2.248z" fill="currentColor" mask="url(#woo_svg_nav_logo_a)" transform="translate(63.296 2.326)"></path><path d="M85.613 5.388h-1.6l.543-1.747h1.6z" fill="currentColor"></path><g fill="currentColor"><path d="M44.627 24.692l.012-.02-.687.01-1.225 1.931-1 1.548-.17-3.489-.759.01-1.161 1.906-.968 1.556-.135-3.472-.794.02h-.027l.22 4.692.719-.009 1.15-1.898.96-1.552.17 3.46h.765l1.925-3.083 1.017-1.61z"></path><path d="M4.497 2.644l-2.177.019h-.747c.172-.446.419-.687.761-.928a1.984 1.984 0 011.158-.385c.302 0 .542.07.712.21.397.42.346.828.293 1.084M3.662.654c-.712 0-1.382.233-1.992.692A3.472 3.472 0 00.414 3.16c-.22.732-.17 1.332.15 1.784.319.452.854.682 1.589.682A3.3 3.3 0 003.73 5.23c.428-.228.767-.515 1.012-.867.035-.047.074-.092.106-.14l-.008-.001.012-.018-.753-.131c-.413.545-.896.767-1.668.767-.37 0-.69-.122-.952-.364-.23-.215-.337-.512-.128-1.252l3.913-.014c.245-.843.216-1.487-.085-1.912C4.88.87 4.367.654 3.662.654" mask="url(#woo_svg_nav_logo_b)" transform="translate(44.115 23.888)"></path><path d="M51.318 24.687l-1.085 3.664-.305 1.013h.005l-.005.02h.848l1.09-3.68.305-1.012h-.006l.006-.02zM52.692 23.05h-.006l.006-.02-.915.014-.23.81-.066.213h.006l-.006.019h.912l.232-.822zM56.795 27.093c-.167.538-.43.968-.782 1.278-.352.308-.744.465-1.162.465-.327 0-.608-.104-.837-.312-.227-.205-.29-.542-.187-.999l.315-1.02c.17-.377.433-.685.783-.92.35-.236.702-.355 1.048-.355.442 0 .728.161.873.491.146.331.128.791-.05 1.372m-.511-2.551c-.534 0-1.04.203-1.492.596a3.688 3.688 0 00-.335.305l.546-1.875.157-.519h-.006l.006-.018-.853.014-1.472 4.945-.414 1.374h.005l-.005.02.654-.013.148-.439.121-.317c.215.595.69.898 1.415.898.657 0 1.269-.239 1.82-.71s.937-1.062 1.146-1.758c.244-.808.22-1.434-.069-1.86-.29-.426-.752-.643-1.372-.643M62.432 27.005c-.192.606-.48 1.059-.853 1.345-.374.286-.775.43-1.193.43-.411 0-.718-.136-.913-.407-.193-.27-.19-.728.01-1.361.19-.601.475-1.045.846-1.32.369-.277.764-.416 1.172-.416.394 0 .699.136.908.407.207.27.216.714.023 1.322m-.718-2.463c-.69 0-1.346.226-1.943.672s-1.015 1.047-1.24 1.792c-.213.707-.184 1.306.086 1.784.273.48.785.723 1.525.723.73 0 1.404-.234 2.004-.696a3.5 3.5 0 001.235-1.796c.212-.701.174-1.295-.113-1.767s-.81-.712-1.554-.712M64.135 28.322l-.229.828-.064.214h.006l-.006.02h1.203l.233-.84.066-.216h-.006l.006-.02z"></path><path d="M3.761.654c-.704 0-1.342.239-1.894.71A3.71 3.71 0 00.713 3.146C.506 3.832.526 4.423.77 4.902c.247.48.75.723 1.492.723a2.72 2.72 0 001.507-.443c.405-.26.73-.62.973-1.078.028-.05.06-.097.088-.15l-.007-.001c.003-.006.008-.011.01-.018l-.74-.106c-.405.756-.9 1.093-1.6 1.093-.435 0-.726-.164-.866-.486-.16-.358-.156-.765.01-1.32.152-.5.328-.906.695-1.267.353-.342.726-.502 1.174-.502.377 0 .654.094.823.279.16.174.219.437.207.788v.018h.001c0 .007.003.011.002.019l.809-.142c.06-.482-.043-.885-.305-1.192C4.78.809 4.348.654 3.76.654" mask="url(#woo_svg_nav_logo_c)" transform="translate(66.173 23.888)"></path><path d="M85.231 24.82c-.222-.185-.522-.277-.889-.277-.615 0-1.176.257-1.665.75a3.627 3.627 0 00-.346.369 1.067 1.067 0 00-.285-.784c-.206-.223-.508-.335-.898-.335-.558 0-1.089.227-1.57.668-.123.106-.244.22-.363.35l.188-.686.055-.183h-.005l.005-.02-.735.015-1.086 3.664-.305 1.013h.005l-.005.02.815-.015.844-2.795c.119-.397.34-.584.69-.854.335-.262.682-.394 1.03-.394a.85.85 0 01.617.248c.162.158.196.29.07.708l-.708 2.42-.2.662h.004l-.004.02.825-.015.794-2.63c.151-.5.403-.749.788-1.012.366-.25.71-.377 1.023-.377.224 0 .41.06.551.182.143.122.215.252.218.396.001.108-.02.177-.07.33l-.061.195-.67 2.287-.189.624h.006l-.006.02h.827l.881-2.92c.132-.438.19-.766.179-1.004-.013-.24-.132-.454-.355-.64M75.842 27.005c-.192.606-.478 1.059-.852 1.345-.374.286-.776.43-1.193.43-.412 0-.719-.136-.913-.407-.194-.27-.19-.728.01-1.361.191-.601.475-1.045.845-1.32.37-.277.764-.416 1.172-.416.394 0 .7.136.908.407.207.27.216.714.023 1.322m-.717-2.463c-.692 0-1.346.226-1.944.672a3.416 3.416 0 00-1.24 1.792c-.213.707-.184 1.306.086 1.784.274.48.786.723 1.525.723.73 0 1.404-.234 2.005-.696a3.512 3.512 0 001.236-1.796c.212-.701.173-1.295-.114-1.767-.288-.472-.81-.712-1.554-.712"></path></g></g></symbol><symbol xmlns="http://www.w3.org/2000/svg" viewBox="0 0 90 30" id="woo_svg_nav_logoGrey"><mask id="woo_svg_nav_logoGrey_a" fill="#fff"><path d="M.257.642h24.837v18.902H.257z" fill-rule="evenodd"></path></mask><mask id="woo_svg_nav_logoGrey_b" fill="#fff"><path d="M.28.654h5.148v4.971H.28z" fill-rule="evenodd"></path></mask><mask id="woo_svg_nav_logoGrey_c" fill="#fff"><path d="M.57.654h4.795v4.971H.571z" fill-rule="evenodd"></path></mask><g fill="none" fill-rule="evenodd"><path d="M2.715 20.11c0 4.203 5.6 7.613 12.506 7.613 6.907 0 12.506-3.41 12.506-7.613s-5.6-7.612-12.506-7.612c-6.907 0-12.506 3.409-12.506 7.612" fill="#fff"></path><path d="M15.513 27.102c-6.114.59-11.39-2.111-11.788-6.035-.397-3.922 4.239-7.581 10.35-8.172 6.115-.591 11.39 2.11 11.789 6.032.395 3.924-4.238 7.584-10.35 8.175M27.74 14.078c-.521-.152-.878-.255-.604-.924.59-1.45.65-2.701.011-3.593-1.2-1.675-4.48-1.584-8.239-.045 0-.001-1.18.505-.878-.41.579-1.818.49-3.34-.409-4.219-2.039-1.995-7.464.075-12.115 4.62C2.023 12.914 0 16.523 0 19.643c0 5.97 7.831 9.598 15.492 9.598 10.043 0 16.724-5.702 16.724-10.231 0-2.737-2.358-4.29-4.476-4.932" fill="#7e7e7e"></path><path d="M34.409 3.154C31.984.526 28.405-.476 25.103.21c-.764.16-1.251.894-1.088 1.64.162.747.914 1.224 1.678 1.063 2.35-.487 4.891.226 6.617 2.093a6.687 6.687 0 011.452 6.647c-.241.727.165 1.505.91 1.74.743.235 1.54-.162 1.782-.888V12.5a9.393 9.393 0 00-2.045-9.346" fill="#999"></path><path d="M30.684 6.44c-1.181-1.28-2.923-1.766-4.532-1.432a1.188 1.188 0 00-.935 1.413c.14.64.787 1.053 1.442.913v.002a2.366 2.366 0 012.217.698c.578.626.733 1.479.484 2.227h.002a1.187 1.187 0 00.783 1.5c.64.199 1.326-.142 1.532-.768a4.57 4.57 0 00-.993-4.553" fill="#999"></path><path d="M15.85 19.996c-.213.358-.686.53-1.057.38-.364-.146-.479-.545-.27-.897.212-.349.666-.52 1.03-.378.369.131.501.535.297.895m-1.947 2.445c-.593.921-1.859 1.325-2.812.9-.94-.418-1.217-1.49-.626-2.388.583-.897 1.808-1.295 2.754-.907.958.4 1.263 1.463.684 2.395m2.22-6.526c-2.909-.741-6.197.676-7.46 3.183-1.287 2.555-.042 5.392 2.897 6.32 3.043.96 6.632-.512 7.88-3.269 1.23-2.697-.306-5.474-3.317-6.234" fill="#000"></path><path d="M46.554 12.454h7.399l.395-1.29H46.95zM55.267 9.389l1.486-4.93h-1.5l-1.087 3.615h-1.873l1.533-5.092h-1.404l-1.535 5.092h-1.873l1.09-3.615h-1.407l-1.483 4.93zM41.457 9.968c2.483-1.869 5.654-4.619 7.63-6.98l-1.773.017c-1.483 1.737-3.052 3.15-5.108 4.74zM54.081 16.004s-1.62 1.103-2.674 1.694l1.04-3.389s-6.166-.039-6.276 0c-.391 1.804-.789 3.68-2.548 4.992a31.478 31.478 0 01-.703 2.279c1.918-1.576 3.196-2.116 4.206-5.495l.148-.485h3.279l-.545 1.775c-.188.807-1.175 1.695-1.175 1.695l.778 1.13c.55-.378 3.965-2.374 3.965-2.374zM47.165 8.29h-1.501a44.707 44.707 0 01-5.383 5.433l-.677 2.165c0 .018-.002.037 0 .055.331-.269.895-.744 1.48-1.23.603-.538 1.031-.913 1.283-1.13l-2.523 8.23h1.5l3.167-10.326c.842-.916 2.015-2.3 2.654-3.198" fill="currentColor"></path><path d="M57.798 14.874c-.269-1.775-.073-4.033.582-6.775a3.29 3.29 0 00.262-.244h2.715c-1.125 2.853-2.312 5.192-3.56 7.02zm1.732-8.391c.836-1.12 1.555-2.487 2.026-3.496h-1.46c-1.67 3.01-2.393 4.33-4.478 6.714-.222.776-.402 1.4-.728 2.434.499-.416 1.187-.977 1.573-1.455-.349 2.15-.35 4.087-.003 5.807-1.048 1.185-1.265 1.568-3.852 3.29-.262.862-.36 1.102-.733 2.198 2.321-1.668 3.952-3.012 4.89-4.035.615 1.453 2.02 2.933 2.985 4.063.324-.822.363-.913.67-1.727-1.29-1.29-2.183-2.955-2.367-3.79 1.671-1.988 3.272-4.866 4.801-8.63h1.311l.42-1.373z" fill="currentColor"></path><path d="M20.934 6.474H16.72l-.397 1.292h4.216zm-4.981 2.501l-.396 1.292h4.214l.397-1.292zM10.82 6.474l-.396 1.292h4.307l.397-1.292zm-.767 2.501l-.396 1.292h4.308l.395-1.292zm11.95-6.293h3.09l-.397 1.292h-7.21l-.397 1.29h5.808l-2.255 7.37h-1.592l.35-1.158h-4.216l-.342 1.156h-1.59l.342-1.156H9.287l-.36 1.179H7.331L9.6 5.263h5.9l.394-1.289H8.871l.397-1.292h7.024l.637-2.04h1.591l-.637 2.04h3.84zM7.953 16.025l1.478-.733a27.158 27.158 0 012.25 2.266l-1.53.64c-.58-.7-1.312-1.421-2.198-2.173zm-2.638-2.29h11.612l.346-1.128h1.686l-.346 1.129h3.652l-.37 1.209h-3.654l-.693 2.261c-.367 1.395-1.517 2.096-3.453 2.096-1.122 0-2.324-.027-2.324-.027s.241-.748.408-1.376c.939.06 1.838.031 2.15.031.938 0 1.464-.296 1.584-.887l.643-2.098H4.945zM6.036.643h1.687L6.101 5.991h2.153l-.421 1.37H5.679L1.943 19.545H.257L3.993 7.362H1.746l.42-1.371h2.248z" fill="currentColor" mask="url(#woo_svg_nav_logoGrey_a)" transform="translate(63.296 2.326)"></path><path d="M85.613 5.388h-1.6l.543-1.747h1.6z" fill="currentColor"></path><g fill="currentColor"><path d="M44.627 24.692l.012-.02-.687.01-1.225 1.931-1 1.548-.17-3.489-.759.01-1.161 1.906-.968 1.556-.135-3.472-.794.02h-.027l.22 4.692.719-.009 1.15-1.898.96-1.552.17 3.46h.765l1.925-3.083 1.017-1.61z"></path><path d="M4.497 2.644l-2.177.019h-.747c.172-.446.419-.687.761-.928a1.984 1.984 0 011.158-.385c.302 0 .542.07.712.21.397.42.346.828.293 1.084M3.662.654c-.712 0-1.382.233-1.992.692A3.472 3.472 0 00.414 3.16c-.22.732-.17 1.332.15 1.784.319.452.854.682 1.589.682A3.3 3.3 0 003.73 5.23c.428-.228.767-.515 1.012-.867.035-.047.074-.092.106-.14l-.008-.001.012-.018-.753-.131c-.413.545-.896.767-1.668.767-.37 0-.69-.122-.952-.364-.23-.215-.337-.512-.128-1.252l3.913-.014c.245-.843.216-1.487-.085-1.912C4.88.87 4.367.654 3.662.654" mask="url(#woo_svg_nav_logoGrey_b)" transform="translate(44.115 23.888)"></path><path d="M51.318 24.687l-1.085 3.664-.305 1.013h.005l-.005.02h.848l1.09-3.68.305-1.012h-.006l.006-.02zM52.692 23.05h-.006l.006-.02-.915.014-.23.81-.066.213h.006l-.006.019h.912l.232-.822zM56.795 27.093c-.167.538-.43.968-.782 1.278-.352.308-.744.465-1.162.465-.327 0-.608-.104-.837-.312-.227-.205-.29-.542-.187-.999l.315-1.02c.17-.377.433-.685.783-.92.35-.236.702-.355 1.048-.355.442 0 .728.161.873.491.146.331.128.791-.05 1.372m-.511-2.551c-.534 0-1.04.203-1.492.596a3.688 3.688 0 00-.335.305l.546-1.875.157-.519h-.006l.006-.018-.853.014-1.472 4.945-.414 1.374h.005l-.005.02.654-.013.148-.439.121-.317c.215.595.69.898 1.415.898.657 0 1.269-.239 1.82-.71s.937-1.062 1.146-1.758c.244-.808.22-1.434-.069-1.86-.29-.426-.752-.643-1.372-.643M62.432 27.005c-.192.606-.48 1.059-.853 1.345-.374.286-.775.43-1.193.43-.411 0-.718-.136-.913-.407-.193-.27-.19-.728.01-1.361.19-.601.475-1.045.846-1.32.369-.277.764-.416 1.172-.416.394 0 .699.136.908.407.207.27.216.714.023 1.322m-.718-2.463c-.69 0-1.346.226-1.943.672s-1.015 1.047-1.24 1.792c-.213.707-.184 1.306.086 1.784.273.48.785.723 1.525.723.73 0 1.404-.234 2.004-.696a3.5 3.5 0 001.235-1.796c.212-.701.174-1.295-.113-1.767s-.81-.712-1.554-.712M64.135 28.322l-.229.828-.064.214h.006l-.006.02h1.203l.233-.84.066-.216h-.006l.006-.02z"></path><path d="M3.761.654c-.704 0-1.342.239-1.894.71A3.71 3.71 0 00.713 3.146C.506 3.832.526 4.423.77 4.902c.247.48.75.723 1.492.723a2.72 2.72 0 001.507-.443c.405-.26.73-.62.973-1.078.028-.05.06-.097.088-.15l-.007-.001c.003-.006.008-.011.01-.018l-.74-.106c-.405.756-.9 1.093-1.6 1.093-.435 0-.726-.164-.866-.486-.16-.358-.156-.765.01-1.32.152-.5.328-.906.695-1.267.353-.342.726-.502 1.174-.502.377 0 .654.094.823.279.16.174.219.437.207.788v.018h.001c0 .007.003.011.002.019l.809-.142c.06-.482-.043-.885-.305-1.192C4.78.809 4.348.654 3.76.654" mask="url(#woo_svg_nav_logoGrey_c)" transform="translate(66.173 23.888)"></path><path d="M85.231 24.82c-.222-.185-.522-.277-.889-.277-.615 0-1.176.257-1.665.75a3.627 3.627 0 00-.346.369 1.067 1.067 0 00-.285-.784c-.206-.223-.508-.335-.898-.335-.558 0-1.089.227-1.57.668-.123.106-.244.22-.363.35l.188-.686.055-.183h-.005l.005-.02-.735.015-1.086 3.664-.305 1.013h.005l-.005.02.815-.015.844-2.795c.119-.397.34-.584.69-.854.335-.262.682-.394 1.03-.394a.85.85 0 01.617.248c.162.158.196.29.07.708l-.708 2.42-.2.662h.004l-.004.02.825-.015.794-2.63c.151-.5.403-.749.788-1.012.366-.25.71-.377 1.023-.377.224 0 .41.06.551.182.143.122.215.252.218.396.001.108-.02.177-.07.33l-.061.195-.67 2.287-.189.624h.006l-.006.02h.827l.881-2.92c.132-.438.19-.766.179-1.004-.013-.24-.132-.454-.355-.64M75.842 27.005c-.192.606-.478 1.059-.852 1.345-.374.286-.776.43-1.193.43-.412 0-.719-.136-.913-.407-.194-.27-.19-.728.01-1.361.191-.601.475-1.045.845-1.32.37-.277.764-.416 1.172-.416.394 0 .7.136.908.407.207.27.216.714.023 1.322m-.717-2.463c-.692 0-1.346.226-1.944.672a3.416 3.416 0 00-1.24 1.792c-.213.707-.184 1.306.086 1.784.274.48.786.723 1.525.723.73 0 1.404-.234 2.005-.696a3.512 3.512 0 001.236-1.796c.212-.701.173-1.295-.114-1.767-.288-.472-.81-.712-1.554-.712"></path></g></g></symbol><symbol xmlns="http://www.w3.org/2000/svg" viewBox="0 0 90 30" id="woo_svg_nav_logoYy"><mask id="woo_svg_nav_logoYy_a" fill="#fff"><path d="M.257.642h24.837v18.902H.257z" fill-rule="evenodd"></path></mask><mask id="woo_svg_nav_logoYy_b" fill="#fff"><path d="M.28.654h5.148v4.971H.28z" fill-rule="evenodd"></path></mask><mask id="woo_svg_nav_logoYy_c" fill="#fff"><path d="M.57.654h4.795v4.971H.571z" fill-rule="evenodd"></path></mask><g fill="none" fill-rule="evenodd"><path d="M2.715 20.11c0 4.203 5.6 7.613 12.506 7.613 6.907 0 12.506-3.41 12.506-7.613s-5.6-7.612-12.506-7.612c-6.907 0-12.506 3.409-12.506 7.612" fill="transparent"></path><path d="M15.513 27.102c-6.114.59-11.39-2.111-11.788-6.035-.397-3.922 4.239-7.581 10.35-8.172 6.115-.591 11.39 2.11 11.789 6.032.395 3.924-4.238 7.584-10.35 8.175M27.74 14.078c-.521-.152-.878-.255-.604-.924.59-1.45.65-2.701.011-3.593-1.2-1.675-4.48-1.584-8.239-.045 0-.001-1.18.505-.878-.41.579-1.818.49-3.34-.409-4.219-2.039-1.995-7.464.075-12.115 4.62C2.023 12.914 0 16.523 0 19.643c0 5.97 7.831 9.598 15.492 9.598 10.043 0 16.724-5.702 16.724-10.231 0-2.737-2.358-4.29-4.476-4.932M34.409 3.154C31.984.526 28.405-.476 25.103.21c-.764.16-1.251.894-1.088 1.64.162.747.914 1.224 1.678 1.063 2.35-.487 4.891.226 6.617 2.093a6.687 6.687 0 011.452 6.647c-.241.727.165 1.505.91 1.74.743.235 1.54-.162 1.782-.888V12.5a9.393 9.393 0 00-2.045-9.346" fill="currentColor"></path><path d="M30.684 6.44c-1.181-1.28-2.923-1.766-4.532-1.432a1.188 1.188 0 00-.935 1.413c.14.64.787 1.053 1.442.913v.002a2.366 2.366 0 012.217.698c.578.626.733 1.479.484 2.227h.002a1.187 1.187 0 00.783 1.5c.64.199 1.326-.142 1.532-.768a4.57 4.57 0 00-.993-4.553M15.85 19.996c-.213.358-.686.53-1.057.38-.364-.146-.479-.545-.27-.897.212-.349.666-.52 1.03-.378.369.131.501.535.297.895m-1.947 2.445c-.593.921-1.859 1.325-2.812.9-.94-.418-1.217-1.49-.626-2.388.583-.897 1.808-1.295 2.754-.907.958.4 1.263 1.463.684 2.395m2.22-6.526c-2.909-.741-6.197.676-7.46 3.183-1.287 2.555-.042 5.392 2.897 6.32 3.043.96 6.632-.512 7.88-3.269 1.23-2.697-.306-5.474-3.317-6.234M46.554 12.454h7.399l.395-1.29H46.95zM55.267 9.389l1.486-4.93h-1.5l-1.087 3.615h-1.873l1.533-5.092h-1.404l-1.535 5.092h-1.873l1.09-3.615h-1.407l-1.483 4.93zM41.457 9.968c2.483-1.869 5.654-4.619 7.63-6.98l-1.773.017c-1.483 1.737-3.052 3.15-5.108 4.74zM54.081 16.004s-1.62 1.103-2.674 1.694l1.04-3.389s-6.166-.039-6.276 0c-.391 1.804-.789 3.68-2.548 4.992a31.478 31.478 0 01-.703 2.279c1.918-1.576 3.196-2.116 4.206-5.495l.148-.485h3.279l-.545 1.775c-.188.807-1.175 1.695-1.175 1.695l.778 1.13c.55-.378 3.965-2.374 3.965-2.374zM47.165 8.29h-1.501a44.707 44.707 0 01-5.383 5.433l-.677 2.165c0 .018-.002.037 0 .055.331-.269.895-.744 1.48-1.23.603-.538 1.031-.913 1.283-1.13l-2.523 8.23h1.5l3.167-10.326c.842-.916 2.015-2.3 2.654-3.198" fill="currentColor"></path><path d="M57.798 14.874c-.269-1.775-.073-4.033.582-6.775a3.29 3.29 0 00.262-.244h2.715c-1.125 2.853-2.312 5.192-3.56 7.02zm1.732-8.391c.836-1.12 1.555-2.487 2.026-3.496h-1.46c-1.67 3.01-2.393 4.33-4.478 6.714-.222.776-.402 1.4-.728 2.434.499-.416 1.187-.977 1.573-1.455-.349 2.15-.35 4.087-.003 5.807-1.048 1.185-1.265 1.568-3.852 3.29-.262.862-.36 1.102-.733 2.198 2.321-1.668 3.952-3.012 4.89-4.035.615 1.453 2.02 2.933 2.985 4.063.324-.822.363-.913.67-1.727-1.29-1.29-2.183-2.955-2.367-3.79 1.671-1.988 3.272-4.866 4.801-8.63h1.311l.42-1.373z" fill="currentColor"></path><path d="M20.934 6.474H16.72l-.397 1.292h4.216zm-4.981 2.501l-.396 1.292h4.214l.397-1.292zM10.82 6.474l-.396 1.292h4.307l.397-1.292zm-.767 2.501l-.396 1.292h4.308l.395-1.292zm11.95-6.293h3.09l-.397 1.292h-7.21l-.397 1.29h5.808l-2.255 7.37h-1.592l.35-1.158h-4.216l-.342 1.156h-1.59l.342-1.156H9.287l-.36 1.179H7.331L9.6 5.263h5.9l.394-1.289H8.871l.397-1.292h7.024l.637-2.04h1.591l-.637 2.04h3.84zM7.953 16.025l1.478-.733a27.158 27.158 0 012.25 2.266l-1.53.64c-.58-.7-1.312-1.421-2.198-2.173zm-2.638-2.29h11.612l.346-1.128h1.686l-.346 1.129h3.652l-.37 1.209h-3.654l-.693 2.261c-.367 1.395-1.517 2.096-3.453 2.096-1.122 0-2.324-.027-2.324-.027s.241-.748.408-1.376c.939.06 1.838.031 2.15.031.938 0 1.464-.296 1.584-.887l.643-2.098H4.945zM6.036.643h1.687L6.101 5.991h2.153l-.421 1.37H5.679L1.943 19.545H.257L3.993 7.362H1.746l.42-1.371h2.248z" fill="currentColor" mask="url(#woo_svg_nav_logoYy_a)" transform="translate(63.296 2.326)"></path><path d="M85.613 5.388h-1.6l.543-1.747h1.6z" fill="currentColor"></path><g fill="currentColor"><path d="M44.627 24.692l.012-.02-.687.01-1.225 1.931-1 1.548-.17-3.489-.759.01-1.161 1.906-.968 1.556-.135-3.472-.794.02h-.027l.22 4.692.719-.009 1.15-1.898.96-1.552.17 3.46h.765l1.925-3.083 1.017-1.61z"></path><path d="M4.497 2.644l-2.177.019h-.747c.172-.446.419-.687.761-.928a1.984 1.984 0 011.158-.385c.302 0 .542.07.712.21.397.42.346.828.293 1.084M3.662.654c-.712 0-1.382.233-1.992.692A3.472 3.472 0 00.414 3.16c-.22.732-.17 1.332.15 1.784.319.452.854.682 1.589.682A3.3 3.3 0 003.73 5.23c.428-.228.767-.515 1.012-.867.035-.047.074-.092.106-.14l-.008-.001.012-.018-.753-.131c-.413.545-.896.767-1.668.767-.37 0-.69-.122-.952-.364-.23-.215-.337-.512-.128-1.252l3.913-.014c.245-.843.216-1.487-.085-1.912C4.88.87 4.367.654 3.662.654" mask="url(#woo_svg_nav_logoYy_b)" transform="translate(44.115 23.888)"></path><path d="M51.318 24.687l-1.085 3.664-.305 1.013h.005l-.005.02h.848l1.09-3.68.305-1.012h-.006l.006-.02zM52.692 23.05h-.006l.006-.02-.915.014-.23.81-.066.213h.006l-.006.019h.912l.232-.822zM56.795 27.093c-.167.538-.43.968-.782 1.278-.352.308-.744.465-1.162.465-.327 0-.608-.104-.837-.312-.227-.205-.29-.542-.187-.999l.315-1.02c.17-.377.433-.685.783-.92.35-.236.702-.355 1.048-.355.442 0 .728.161.873.491.146.331.128.791-.05 1.372m-.511-2.551c-.534 0-1.04.203-1.492.596a3.688 3.688 0 00-.335.305l.546-1.875.157-.519h-.006l.006-.018-.853.014-1.472 4.945-.414 1.374h.005l-.005.02.654-.013.148-.439.121-.317c.215.595.69.898 1.415.898.657 0 1.269-.239 1.82-.71s.937-1.062 1.146-1.758c.244-.808.22-1.434-.069-1.86-.29-.426-.752-.643-1.372-.643M62.432 27.005c-.192.606-.48 1.059-.853 1.345-.374.286-.775.43-1.193.43-.411 0-.718-.136-.913-.407-.193-.27-.19-.728.01-1.361.19-.601.475-1.045.846-1.32.369-.277.764-.416 1.172-.416.394 0 .699.136.908.407.207.27.216.714.023 1.322m-.718-2.463c-.69 0-1.346.226-1.943.672s-1.015 1.047-1.24 1.792c-.213.707-.184 1.306.086 1.784.273.48.785.723 1.525.723.73 0 1.404-.234 2.004-.696a3.5 3.5 0 001.235-1.796c.212-.701.174-1.295-.113-1.767s-.81-.712-1.554-.712M64.135 28.322l-.229.828-.064.214h.006l-.006.02h1.203l.233-.84.066-.216h-.006l.006-.02z"></path><path d="M3.761.654c-.704 0-1.342.239-1.894.71A3.71 3.71 0 00.713 3.146C.506 3.832.526 4.423.77 4.902c.247.48.75.723 1.492.723a2.72 2.72 0 001.507-.443c.405-.26.73-.62.973-1.078.028-.05.06-.097.088-.15l-.007-.001c.003-.006.008-.011.01-.018l-.74-.106c-.405.756-.9 1.093-1.6 1.093-.435 0-.726-.164-.866-.486-.16-.358-.156-.765.01-1.32.152-.5.328-.906.695-1.267.353-.342.726-.502 1.174-.502.377 0 .654.094.823.279.16.174.219.437.207.788v.018h.001c0 .007.003.011.002.019l.809-.142c.06-.482-.043-.885-.305-1.192C4.78.809 4.348.654 3.76.654" mask="url(#woo_svg_nav_logoYy_c)" transform="translate(66.173 23.888)"></path><path d="M85.231 24.82c-.222-.185-.522-.277-.889-.277-.615 0-1.176.257-1.665.75a3.627 3.627 0 00-.346.369 1.067 1.067 0 00-.285-.784c-.206-.223-.508-.335-.898-.335-.558 0-1.089.227-1.57.668-.123.106-.244.22-.363.35l.188-.686.055-.183h-.005l.005-.02-.735.015-1.086 3.664-.305 1.013h.005l-.005.02.815-.015.844-2.795c.119-.397.34-.584.69-.854.335-.262.682-.394 1.03-.394a.85.85 0 01.617.248c.162.158.196.29.07.708l-.708 2.42-.2.662h.004l-.004.02.825-.015.794-2.63c.151-.5.403-.749.788-1.012.366-.25.71-.377 1.023-.377.224 0 .41.06.551.182.143.122.215.252.218.396.001.108-.02.177-.07.33l-.061.195-.67 2.287-.189.624h.006l-.006.02h.827l.881-2.92c.132-.438.19-.766.179-1.004-.013-.24-.132-.454-.355-.64M75.842 27.005c-.192.606-.478 1.059-.852 1.345-.374.286-.776.43-1.193.43-.412 0-.719-.136-.913-.407-.194-.27-.19-.728.01-1.361.191-.601.475-1.045.845-1.32.37-.277.764-.416 1.172-.416.394 0 .7.136.908.407.207.27.216.714.023 1.322m-.717-2.463c-.692 0-1.346.226-1.944.672a3.416 3.416 0 00-1.24 1.792c-.213.707-.184 1.306.086 1.784.274.48.786.723 1.525.723.73 0 1.404-.234 2.005-.696a3.512 3.512 0 001.236-1.796c.212-.701.173-1.295-.114-1.767-.288-.472-.81-.712-1.554-.712"></path></g></g></symbol><symbol xmlns="http://www.w3.org/2000/svg" viewBox="0 0 30 30" id="woo_svg_nav_messages"><path d="M24 10.722l-7.012 5.17c-1.15.849-2.828.847-3.976 0L6 10.722v11.27a.5.5 0 00.503.508h16.994a.501.501 0 00.503-.509V10.722zM4 8.01A2.501 2.501 0 016.503 5.5h16.994A2.5 2.5 0 0126 8.009V21.99a2.501 2.501 0 01-2.503 2.509H6.503A2.5 2.5 0 014 21.991V8.01zm10.199 6.273c.442.327 1.157.329 1.602 0l7.592-5.597c.888-.655.709-1.185-.384-1.185H6.991c-1.1 0-1.272.53-.384 1.185l7.592 5.597z" fill-rule="nonzero" fill="currentColor"></path></symbol><symbol xmlns="http://www.w3.org/2000/svg" viewBox="0 0 30 30" id="woo_svg_nav_messagesFlat"><path d="M4 8.009A2.501 2.501 0 016.503 5.5h16.994A2.5 2.5 0 0126 8.009V21.99a2.501 2.501 0 01-2.503 2.509H6.503A2.5 2.5 0 014 21.991V8.01zm10.199 6.273c.442.327 1.157.329 1.602 0l7.592-5.597c.888-.655.709-1.185-.384-1.185H6.991c-1.1 0-1.272.53-.384 1.185l7.592 5.597z" fill="currentColor" fill-rule="nonzero"></path></symbol><symbol xmlns="http://www.w3.org/2000/svg" viewBox="0 0 30 30" id="woo_svg_nav_moon"><path d="M7.45 23.045A11.71 11.71 0 014 14.711c0-2.587.831-5.03 2.403-7.064a11.774 11.774 0 012.68-2.52c.586-.4 1.631-.802 3.136-1.204a.5.5 0 01.61.617c-.518 1.873-.778 3.252-.778 4.135 0 5.389 4.384 9.775 9.774 9.775.883 0 2.262-.26 4.135-.78a.5.5 0 01.617.61c-.401 1.505-.802 2.55-1.202 3.137a11.774 11.774 0 01-2.522 2.68 11.447 11.447 0 01-7.064 2.403 11.723 11.723 0 01-8.339-3.455z" fill="currentColor" fill-rule="nonzero"></path></symbol><symbol xmlns="http://www.w3.org/2000/svg" viewBox="0 0 12 12" id="woo_svg_nav_pub"><path d="M4.11 7.881l1.818-.601 5.81-5.808a.86.86 0 00-.035-1.18.856.856 0 00-1.177-.032L4.714 6.064 4.11 7.881zm7.033-3.594a.858.858 0 00-.857.86v5.14H1.714V1.716h5.143a.861.861 0 100-1.713h-6A.858.858 0 000 .862V11.14c0 .474.384.859.857.859h10.286a.858.858 0 00.857-.86V5.145a.858.858 0 00-.857-.857z" fill="#FFF" fill-rule="evenodd"></path></symbol><symbol xmlns="http://www.w3.org/2000/svg" viewBox="0 0 16 16" id="woo_svg_nav_search"><path d="M13.401 12.363l2.402 2.362a.73.73 0 01-.001 1.054l-.026.026a.773.773 0 01-1.072 0l-2.43-2.388a7.667 7.667 0 01-4.657 1.562C3.41 14.979 0 11.626 0 7.489 0 3.353 3.41 0 7.617 0s7.617 3.353 7.617 7.49c0 1.86-.69 3.563-1.833 4.873zM1.632 7.49c0 3.25 2.68 5.884 5.985 5.884a6.024 6.024 0 003.755-1.302 5.837 5.837 0 002.23-4.582c0-3.25-2.68-5.885-5.985-5.885S1.632 4.24 1.632 7.49z" fill="currentColor" fill-rule="evenodd"></path></symbol><symbol xmlns="http://www.w3.org/2000/svg" viewBox="0 0 11 11" id="woo_svg_nav_sicon-clear"><path d="M5.799 9.214l.75-1.299a.5.5 0 01.866.5l-.75 1.3.433.25 1.5-2.599-5.196-3-1.5 2.598.433.25.75-1.299a.5.5 0 01.866.5l-.75 1.3.866.5.75-1.3a.5.5 0 01.866.5l-.75 1.3.866.5zm1.634-4.83l-.866-.5-2.598-1.5-.5.866 6.062 3.5.5-.866-2.598-1.5zM6.201 2.518l1-1.732A1 1 0 018.567.42l.866.5a1 1 0 01.366 1.366l-1 1.732 1.732 1a1 1 0 01.366 1.366l-.5.866a1 1 0 01-.866.5l-1.567 2.714a1 1 0 01-1.366.366l-5.196-3a1 1 0 01-.366-1.366L2.603 3.75a1 1 0 010-1l.5-.866a1 1 0 011.366-.366l1.732 1zm.866.5l.866.5 1-1.732-.866-.5-1 1.732z" fill-rule="nonzero" fill="currentColor"></path></symbol><symbol xmlns="http://www.w3.org/2000/svg" viewBox="0 0 30 30" id="woo_svg_nav_sun"><path d="M15 24.09c.628 0 1.136.51 1.136 1.137v1.637c0 .585-.443 1.068-1.012 1.13L15 28a1.136 1.136 0 01-1.136-1.136v-1.637c0-.627.508-1.136 1.136-1.136zm-6.428-2.662a1.136 1.136 0 010 1.607l-1.157 1.157a1.137 1.137 0 01-1.515.083l-.092-.083a1.136 1.136 0 010-1.607l1.157-1.157a1.136 1.136 0 011.607 0zm14.463 0l1.157 1.157a1.136 1.136 0 01-1.607 1.607l-1.157-1.157a1.137 1.137 0 01-.083-1.515l.083-.092a1.136 1.136 0 011.607 0zM15 7.424a7.576 7.576 0 110 15.152 7.576 7.576 0 010-15.152zm-10.227 6.44a1.136 1.136 0 010 2.272H3.136a1.137 1.137 0 01-1.13-1.012L2 15c0-.628.509-1.136 1.136-1.136h1.637zm22.09 0a1.136 1.136 0 110 2.272h-1.636a1.137 1.137 0 01-1.13-1.012L24.091 15c0-.628.509-1.136 1.136-1.136h1.637zm-2.67-8.056a1.136 1.136 0 010 1.607l-1.158 1.157a1.137 1.137 0 01-1.515.083l-.092-.083a1.136 1.136 0 010-1.607l1.157-1.157a1.136 1.136 0 011.607 0zm-16.778 0l1.157 1.157a1.136 1.136 0 01-1.607 1.607L5.808 7.415A1.137 1.137 0 015.725 5.9l.083-.092a1.136 1.136 0 011.607 0zM15 2c.628 0 1.136.509 1.136 1.136v1.637c0 .586-.443 1.068-1.012 1.13L15 5.909a1.136 1.136 0 01-1.136-1.136V3.136C13.864 2.51 14.372 2 15 2z" fill="currentColor" fill-rule="evenodd"></path></symbol><symbol xmlns="http://www.w3.org/2000/svg" viewBox="0 0 30 30" id="woo_svg_nav_tv"><path d="M6 5h18a2 2 0 012 2v13a2 2 0 01-2 2H6a2 2 0 01-2-2V7a2 2 0 012-2zm1 2a1 1 0 00-1 1v11a1 1 0 001 1h16a1 1 0 001-1V8a1 1 0 00-1-1H7zm10.634 7.19l-3.563 2.208c-.346.215-.784.08-.979-.302a.855.855 0 01-.092-.388v-4.416c0-.438.322-.792.718-.792.124 0 .245.035.353.102l3.563 2.208c.345.214.468.697.274 1.078a.76.76 0 01-.274.302zM10 23h10a1 1 0 010 2H10a1 1 0 010-2z" fill="currentColor" fill-rule="evenodd"></path></symbol><symbol xmlns="http://www.w3.org/2000/svg" viewBox="0 0 30 30" id="woo_svg_nav_tvFlat"><path d="M6 5h18a2 2 0 012 2v13a2 2 0 01-2 2H6a2 2 0 01-2-2V7a2 2 0 012-2zm11.634 9.19a.76.76 0 00.274-.302c.194-.381.071-.864-.274-1.078l-3.563-2.208a.667.667 0 00-.353-.102c-.396 0-.718.354-.718.792v4.416c0 .136.032.27.092.388.195.381.633.517.979.302l3.563-2.208zM10 23h10a1 1 0 010 2H10a1 1 0 010-2z" fill="currentColor" fill-rule="evenodd"></path></symbol></svg>